<svg xmlns="http://www.w3.org/2000/svg" viewBox="0 0 48 48" role="img" aria-label="Zalo">
  <rect width="48" height="48" rx="12" fill="#0068FF"/>
  <path fill="#fff" d="M13.2 30.8h10.2v-3.1h-5.5l5.4-7.7v-2.8H13.7v3.1h5l-5.5 7.8v2.7z"/>
  <path fill="#fff" d="M27.7 31.1c1.5 0 2.7-.5 3.5-1.4v1.1h3.4V21h-3.4v1.1c-.8-.9-2-1.4-3.5-1.4-2.9 0-5.1 2.2-5.1 5.2s2.2 5.2 5.1 5.2zm.8-3.1c-1.3 0-2.3-.9-2.3-2.1s1-2.1 2.3-2.1 2.3.9 2.3 2.1-1 2.1-2.3 2.1z"/>
  <path fill="#fff" d="M36.3 30.8h3.5V17h-3.5v13.8z"/>
  <path fill="#fff" d="M40.7 26c0 3 2.3 5.2 5.4 5.2s5.4-2.2 5.4-5.2-2.3-5.2-5.4-5.2-5.4 2.2-5.4 5.2zm3.5 0c0-1.3.8-2.1 1.9-2.1s1.9.8 1.9 2.1-.8 2.1-1.9 2.1-1.9-.8-1.9-2.1z" transform="translate(-5.8 0)"/>
</svg>
